<?xml version="1.0" standalone="no"?><!DOCTYPE svg PUBLIC "-//W3C//DTD SVG 1.1//EN" "http://www.w3.org/Graphics/SVG/1.1/DTD/svg11.dtd"><svg t="1780582395220" class="icon" viewBox="0 0 1024 1024" version="1.1" xmlns="http://www.w3.org/2000/svg" p-id="5095" xmlns:xlink="http://www.w3.org/1999/xlink" width="200" height="200"><path d="M512 85.333333c235.648 0 426.666667 191.018667 426.666667 426.666667s-191.018667 426.666667-426.666667 426.666667S85.333333 747.648 85.333333 512 276.352 85.333333 512 85.333333z m0 85.333334a341.333333 341.333333 0 1 0 0 682.666666 341.333333 341.333333 0 0 0 0-682.666666z m163.541333 142.378666a25.429333 25.429333 0 0 1 32.554667 2.858667 25.173333 25.173333 0 0 1 2.688 32.426667c-93.013333 129.962667-144.213333 199.594667-153.514667 208.938666a64 64 0 0 1-90.538666-90.538666c15.957333-15.914667 85.546667-67.157333 208.810666-153.685334zM746.666667 469.333333a42.666667 42.666667 0 1 1 0 85.333334 42.666667 42.666667 0 0 1 0-85.333334z m-469.333334 0a42.666667 42.666667 0 1 1 0 85.333334 42.666667 42.666667 0 0 1 0-85.333334z m98.901334-153.429333a42.666667 42.666667 0 1 1-60.330667 60.330667 42.666667 42.666667 0 0 1 60.330667-60.330667zM512 234.666667a42.666667 42.666667 0 1 1 0 85.333333 42.666667 42.666667 0 0 1 0-85.333333z" fill="#000000" p-id="5096"></path></svg>